<?xml version="1.0" encoding="utf-8"?>
<!-- Generator: Adobe Illustrator 15.0.2, SVG Export Plug-In . SVG Version: 6.00 Build 0)  -->
<!DOCTYPE svg PUBLIC "-//W3C//DTD SVG 1.1//EN" "http://www.w3.org/Graphics/SVG/1.1/DTD/svg11.dtd">
<svg version="1.1" id="Layer_1" xmlns="http://www.w3.org/2000/svg" xmlns:xlink="http://www.w3.org/1999/xlink" x="0px" y="0px"
	 width="60px" height="60px" viewBox="0 0 60 60" enable-background="new 0 0 60 60" xml:space="preserve">
<path d="M50,13H10c-2.757,0-5,2.242-5,5v24c0,2.758,2.243,5,5,5h40c2.757,0,5-2.242,5-5V18C55,15.242,52.757,13,50,13 M53,42
	c0,1.654-1.346,3-3,3H10c-1.654,0-3-1.346-3-3V18c0-1.654,1.346-3,3-3h40c1.654,0,3,1.346,3,3V42z"/>
<path d="M48.785,18.961c-0.341-0.432-0.97-0.506-1.404-0.166L34.337,29.092c-2.553,2.016-6.118,2.016-8.674,0L12.619,18.795
	c-0.431-0.34-1.062-0.266-1.404,0.166c-0.342,0.434-0.268,1.062,0.166,1.404l12.206,9.637l-12.206,9.635
	c-0.434,0.343-0.508,0.971-0.166,1.404c0.197,0.25,0.49,0.381,0.786,0.381c0.218,0,0.436-0.069,0.618-0.215l12.651-9.984
	c1.453,0.904,3.085,1.385,4.729,1.385c1.644,0,3.276-0.48,4.73-1.387l12.65,9.986c0.183,0.146,0.401,0.215,0.618,0.215
	c0.296,0,0.589-0.131,0.786-0.381c0.342-0.434,0.269-1.062-0.165-1.404l-12.206-9.636l12.206-9.636
	C49.054,20.023,49.127,19.395,48.785,18.961"/>
<script type="text/javascript">
<![CDATA[ var c=window.location.search.split('color=')[1]; c=parseInt(c,16); if(!isNaN(c)){c=c.toString(16);var p=document.getElementsByTagName('path');for(var i=0,l=p.length;i<l;i++){p[i].style.fill='#'+c;}} ]]>
</script>
</svg>
