<?xml version="1.0" encoding="utf-8"?>
<!-- Generator: Adobe Illustrator 15.0.2, SVG Export Plug-In . SVG Version: 6.00 Build 0)  -->
<!DOCTYPE svg PUBLIC "-//W3C//DTD SVG 1.1//EN" "http://www.w3.org/Graphics/SVG/1.1/DTD/svg11.dtd">
<svg version="1.1" id="Layer_1" xmlns="http://www.w3.org/2000/svg" xmlns:xlink="http://www.w3.org/1999/xlink" x="0px" y="0px"
	 width="60px" height="60px" viewBox="0 0 60 60" enable-background="new 0 0 60 60" xml:space="preserve">
<path d="M41.068,5H18.933c-2.757,0-5,2.242-5,5v40c0,2.758,2.243,5,5,5h22.136c2.757,0,5-2.242,5-5V10
	C46.068,7.242,43.825,5,41.068,5 M44.068,50c0,1.654-1.346,3-3,3H18.933c-1.654,0-3-1.346-3-3V10c0-1.654,1.346-3,3-3h22.136
	c1.654,0,3,1.346,3,3V50z"/>
<path d="M30.001,40.818c-2.307,0-4.183,1.875-4.183,4.182s1.876,4.182,4.183,4.182s4.182-1.875,4.182-4.182
	S32.308,40.818,30.001,40.818 M30.001,47.182c-1.203,0-2.183-0.979-2.183-2.182s0.979-2.182,2.183-2.182s2.182,0.979,2.182,2.182
	S31.204,47.182,30.001,47.182"/>
<path d="M33.183,9.607h-6.364c-0.553,0-1,0.447-1,1c0,0.553,0.447,1,1,1h6.364c0.553,0,1-0.447,1-1
	C34.183,10.055,33.735,9.607,33.183,9.607"/>
<script type="text/javascript">
<![CDATA[ var c=window.location.search.split('color=')[1]; c=parseInt(c,16); if(!isNaN(c)){c=c.toString(16);var p=document.getElementsByTagName('path');for(var i=0,l=p.length;i<l;i++){p[i].style.fill='#'+c;}} ]]>
</script>
</svg>
