<svg version="1.1" id="Vrstva_1" xmlns="http://www.w3.org/2000/svg" xmlns:xlink="http://www.w3.org/1999/xlink" x="0px" y="0px"
	 viewBox="-1.000 -1.000 29.200 31.600" enable-background="new 0 0 27.2 29.6" xml:space="preserve">
<g>
	<path fill="#231F20" d="M14.8,29.6c5.2,0,9.7-2.6,12.4-6.7c-2.5,3.2-6.4,5.3-10.8,5.3c-7.5,0-13.6-6.1-13.6-13.6
		c0-7.5,6.1-13.6,13.6-13.6c3.6,0,7,1.4,9.4,3.8c-2.7-3-6.6-4.9-11-4.9C6.6,0,0,6.6,0,14.8C0,23,6.6,29.6,14.8,29.6z"/>
	<path fill="#231F20" d="M14.8,26.9c4.2,0,7.9-2.2,10.1-5.4c-2,2.6-5.2,4.3-8.8,4.3C10,25.8,5,20.8,5,14.7C5,8.6,10,3.7,16.1,3.7
		c3,0,5.7,1.2,7.6,3.1c-2.2-2.4-5.4-4-8.9-4C8.1,2.8,2.7,8.2,2.7,14.8C2.7,21.5,8.1,26.9,14.8,26.9z"/>
	<path fill="#231F20" d="M14.7,24.5c3.4,0,6.4-1.7,8.1-4.4c-1.6,2.1-4.2,3.5-7.1,3.5c-4.9,0-8.9-4-8.9-8.9c0-4.9,4-8.9,8.9-8.9
		c2.4,0,4.6,0.9,6.2,2.5c-1.8-2-4.4-3.2-7.2-3.2C9.4,5.1,5,9.4,5,14.8C5,20.2,9.4,24.5,14.7,24.5z"/>
	<circle fill="#231F20" cx="12.2" cy="14.8" r="4.4"/>
</g>
<script  type="text/javascript">
    <![CDATA[
         var c=window.location.search.split('color=')[1]; c=parseInt(c,16); if(!isNaN(c)){c=c.toString(16);var p=document.getElementsByTagName('path');for(var i=0,l=p.length;i<l;i++){var s=p[i].style;s.fill='#'+c;} var p2=document.getElementsByTagName('polygon');for(var i=0,l=p2.length;i<l;i++){var s=p2[i].style;s.fill='#'+c;} var p3=document.getElementsByTagName('circle');for(var i=0,l=p3.length;i<l;i++){var s=p3[i].style;s.fill='#'+c;} }
        ]]>
</script>
</svg>
