<?xml version="1.0" encoding="utf-8"?>
<!-- Generator: Adobe Illustrator 15.0.2, SVG Export Plug-In . SVG Version: 6.00 Build 0)  -->
<!DOCTYPE svg PUBLIC "-//W3C//DTD SVG 1.1//EN" "http://www.w3.org/Graphics/SVG/1.1/DTD/svg11.dtd">
<svg version="1.1" id="Layer_1" xmlns="http://www.w3.org/2000/svg" xmlns:xlink="http://www.w3.org/1999/xlink" x="0px" y="0px"
	 width="60px" height="60px" viewBox="0 0 60 60" enable-background="new 0 0 60 60" xml:space="preserve">
<path d="M48.769,8c-0.338,0-0.687,0.054-1.038,0.17L10.671,20.44c-3.559,1.18-3.574,6.208-0.022,7.408l16.079,5.431l5.424,16.06
	C32.752,51.113,34.305,52,35.857,52c1.563,0,3.123-0.896,3.715-2.684l12.265-37.04C52.561,10.091,50.873,8,48.769,8 M49.938,11.647
	L37.674,48.688C37.271,49.904,36.182,50,35.857,50c-0.32,0-1.402-0.094-1.811-1.301l-5.424-16.06
	c-0.2-0.592-0.664-1.055-1.255-1.255l-16.079-5.431c-1.206-0.408-1.297-1.489-1.296-1.812s0.098-1.402,1.306-1.803l37.06-12.271
	c0.14-0.046,0.276-0.068,0.41-0.068c0.388,0,0.764,0.199,1.005,0.533C49.94,10.764,50.105,11.146,49.938,11.647"/>
<script type="text/javascript">
<![CDATA[ var c=window.location.search.split('color=')[1]; c=parseInt(c,16); if(!isNaN(c)){c=c.toString(16);var p=document.getElementsByTagName('path');for(var i=0,l=p.length;i<l;i++){p[i].style.fill='#'+c;}} ]]>
</script>
</svg>
